<svg width="174" height="130" viewBox="0 0 174 130" fill="none" xmlns="http://www.w3.org/2000/svg">
<rect x="11" y="16" width="148" height="98" rx="9" fill="black" stroke="white" stroke-width="2"/>
<path d="M136.326 12.6471L160.299 5.191L159.282 1.91883C159.236 1.77121 159.158 1.63562 159.053 1.52183C158.948 1.40804 158.82 1.31889 158.677 1.26082C158.533 1.20274 158.379 1.17718 158.225 1.18598C158.07 1.19478 157.92 1.23772 157.784 1.31171L136.012 12.2188C135.852 12.3059 135.717 12.4336 135.621 12.5889C135.526 12.7443 135.472 12.922 135.467 13.1043C135.722 12.899 136.013 12.7439 136.326 12.6471ZM162.729 6.07658L136.791 14.1435C136.526 14.2258 136.305 14.4098 136.176 14.6551C136.048 14.9004 136.021 15.1868 136.104 15.4514L141.688 33.4084C141.771 33.673 141.955 33.894 142.2 34.0229C142.445 34.1518 142.732 34.178 142.996 34.0957L168.934 26.0288C169.199 25.9465 169.42 25.7625 169.549 25.5172C169.678 25.272 169.704 24.9855 169.622 24.7209L164.037 6.76393C163.954 6.49934 163.77 6.27829 163.525 6.14938C163.28 6.02048 162.993 5.99429 162.729 6.07658ZM160.498 19.8998C160.103 20.0226 159.681 20.0255 159.285 19.9083C158.888 19.7911 158.536 19.559 158.271 19.2414C158.007 18.9238 157.842 18.5349 157.799 18.124C157.756 17.713 157.835 17.2984 158.027 16.9325C158.22 16.5667 158.516 16.2661 158.879 16.0688C159.242 15.8714 159.656 15.7862 160.067 15.8238C160.479 15.8614 160.87 16.0202 161.191 16.2802C161.513 16.5401 161.75 16.8894 161.872 17.2841C162.037 17.8132 161.984 18.3861 161.727 18.8767C161.469 19.3672 161.027 19.7352 160.498 19.8998Z" fill="#8B8B8B"/>
<path d="M148.055 23.2404C148.693 24.7877 150.361 25.5077 152.412 25.0301L152.617 25.688C152.703 25.966 152.998 26.1212 153.276 26.0348V26.0348C153.554 25.9483 153.71 25.6529 153.623 25.375L153.418 24.7171C155.556 23.8649 156.541 22.2401 155.988 20.4622C155.516 18.9439 154.328 18.3496 152.236 18.4579L151.484 18.496L150.355 14.8656C151.47 14.6339 152.38 14.9834 152.832 15.7874L154.251 15.3462C153.615 13.8682 151.948 13.1844 149.981 13.6634L149.778 13.0131C149.692 12.7352 149.397 12.5799 149.119 12.6664V12.6664C148.841 12.7528 148.686 13.0482 148.772 13.3261L148.982 14.0003C147.179 14.8018 146.263 16.3873 146.763 17.9953C147.195 19.3837 148.433 20.0763 150.197 19.9821L150.834 19.9537L152.031 23.8028C150.872 23.9853 149.922 23.6211 149.465 22.8019L148.055 23.2404ZM150.188 18.5597C149.103 18.6216 148.399 18.2521 148.164 17.4968C147.884 16.5954 148.356 15.7186 149.358 15.2111L150.396 18.5484L150.188 18.5597ZM152.279 19.8698C153.617 19.7919 154.321 20.1342 154.592 21.0031C154.918 22.0506 154.338 22.9966 153.045 23.5149L151.918 19.8911L152.279 19.8688L152.279 19.8698Z" fill="black"/>
<circle cx="16" cy="109" r="14" fill="white"/>
<path d="M2 110.845L6.07803 106.898C6.79756 106.202 7.75963 105.813 8.76092 105.813H12.3158M12.3158 105.813L18.3777 99.9577C19.1072 99.253 20.2689 99.2693 20.9783 99.9944L26.0559 105.184C26.7615 105.905 26.7571 107.059 26.0461 107.774L15.8351 118.053C15.1349 118.757 14.0025 118.781 13.2732 118.107L7.87078 113.109L7.36757 112.606C7.90547 112.757 8.73814 112.705 9.79675 111.848C10.4768 111.297 11.341 110.986 12.2134 111.056C12.8675 111.109 13.5887 111.093 13.9932 110.845C14.7132 110.404 15.6727 109.433 14.7834 108.579C14.3371 108.15 13.673 108.077 13.0541 108.077H10.0514L12.3158 105.813Z" stroke="black" stroke-width="0.507376"/>
<path d="M7.30713 113.969C7.94051 114.232 8.89276 114.481 9.99353 113.118" stroke="black" stroke-width="0.507376"/>
<path d="M17.7894 105.966L17.5142 105.684C17.6431 105.556 17.7943 105.453 17.968 105.378C18.1416 105.303 18.3289 105.265 18.5298 105.265C18.7307 105.265 18.918 105.303 19.0917 105.38C19.2653 105.456 19.4165 105.56 19.5454 105.691L19.2702 105.966C19.1741 105.87 19.0627 105.795 18.936 105.74C18.8094 105.685 18.674 105.658 18.5298 105.658C18.3857 105.658 18.2502 105.685 18.1236 105.74C17.9969 105.795 17.8855 105.87 17.7894 105.966ZM17.2325 105.409L16.9573 105.134C17.1582 104.929 17.393 104.768 17.6616 104.652C17.9303 104.537 18.2197 104.479 18.5298 104.479C18.8399 104.479 19.1293 104.537 19.398 104.652C19.6666 104.768 19.9014 104.929 20.1023 105.134L19.8271 105.409C19.659 105.241 19.4641 105.109 19.2424 105.014C19.0207 104.919 18.7832 104.872 18.5298 104.872C18.2765 104.872 18.0389 104.919 17.8172 105.014C17.5955 105.109 17.4006 105.241 17.2325 105.409ZM18.5298 106.707L18.9917 106.241C18.9328 106.182 18.864 106.136 18.7853 106.102C18.7067 106.068 18.6215 106.051 18.5298 106.051C18.4381 106.051 18.3529 106.068 18.2743 106.102C18.1956 106.136 18.1268 106.182 18.0679 106.241L18.5298 106.707Z" fill="black"/>
<rect x="14.3591" y="114.804" width="2.3588" height="0.524177" rx="0.262088" transform="rotate(-46.0776 14.3591 114.804)" fill="black"/>
<rect x="16.4331" y="112.73" width="2.3588" height="0.524177" rx="0.262088" transform="rotate(-46.0776 16.4331 112.73)" fill="black"/>
<rect x="18.5073" y="110.656" width="2.3588" height="0.524177" rx="0.262088" transform="rotate(-46.0776 18.5073 110.656)" fill="black"/>
<rect x="20.5813" y="108.582" width="2.3588" height="0.524177" rx="0.262088" transform="rotate(-46.0776 20.5813 108.582)" fill="black"/>
<path d="M22 32C22 30.3431 23.3431 29 25 29H44.6639C45.5144 29 46.3249 29.361 46.8938 29.9931L50.5 34L54.1213 37.6213C54.6839 38.1839 55 38.947 55 39.7426V73C55 74.6569 53.6569 76 52 76H25C23.3431 76 22 74.6569 22 73V32Z" fill="#D9D9D9"/>
<path d="M45.3959 38.3609C44.8107 38.3644 44.3475 37.8669 44.3928 37.2834L44.9042 30.7018C44.9717 29.8335 46.0397 29.4604 46.6331 30.0978L52.7231 36.6392C53.3165 37.2766 52.8681 38.3153 51.9973 38.3206L45.3959 38.3609Z" fill="black"/>
<path d="M30 43C30.6188 43 31.2123 43.2458 31.6499 43.6834C32.0875 44.121 32.3333 44.7145 32.3333 45.3333C32.3333 45.9522 32.0875 46.5457 31.6499 46.9832C31.2123 47.4208 30.6188 47.6667 30 47.6667C29.3812 47.6667 28.7877 47.4208 28.3501 46.9832C27.9125 46.5457 27.6667 45.9522 27.6667 45.3333C27.6667 44.7145 27.9125 44.121 28.3501 43.6834C28.7877 43.2458 29.3812 43 30 43ZM25.3333 44.6667C25.7067 44.6667 26.0533 44.7667 26.3533 44.9467C26.2533 45.9 26.5333 46.8467 27.1067 47.5867C26.7733 48.2267 26.1067 48.6667 25.3333 48.6667C24.8029 48.6667 24.2942 48.456 23.9191 48.0809C23.544 47.7058 23.3333 47.1971 23.3333 46.6667C23.3333 46.1362 23.544 45.6275 23.9191 45.2525C24.2942 44.8774 24.8029 44.6667 25.3333 44.6667ZM34.6667 44.6667C35.1971 44.6667 35.7058 44.8774 36.0809 45.2525C36.456 45.6275 36.6667 46.1362 36.6667 46.6667C36.6667 47.1971 36.456 47.7058 36.0809 48.0809C35.7058 48.456 35.1971 48.6667 34.6667 48.6667C33.8933 48.6667 33.2267 48.2267 32.8933 47.5867C33.4746 46.8363 33.7444 45.8908 33.6467 44.9467C33.9467 44.7667 34.2933 44.6667 34.6667 44.6667ZM25.6667 51.5C25.6667 50.12 27.6067 49 30 49C32.3933 49 34.3333 50.12 34.3333 51.5V52.6667H25.6667V51.5ZM22 52.6667V51.6667C22 50.74 23.26 49.96 24.9667 49.7333C24.5733 50.1867 24.3333 50.8133 24.3333 51.5V52.6667H22ZM38 52.6667H35.6667V51.5C35.6667 50.8133 35.4267 50.1867 35.0333 49.7333C36.74 49.96 38 50.74 38 51.6667V52.6667Z" fill="black"/>
<line x1="41.5" y1="45.5" x2="52.5" y2="45.5" stroke="black" stroke-linecap="round"/>
<line x1="41.5" y1="48.5" x2="52.5" y2="48.5" stroke="black" stroke-linecap="round"/>
<line x1="41.5" y1="51.5" x2="52.5" y2="51.5" stroke="black" stroke-linecap="round"/>
<line x1="26.5" y1="54.5" x2="52.5" y2="54.5" stroke="black" stroke-linecap="round"/>
<line x1="26.5" y1="57.5" x2="52.5" y2="57.5" stroke="black" stroke-linecap="round"/>
<rect x="26" y="60" width="27" height="11" rx="2" fill="black"/>
<rect x="27" y="63" width="6" height="1" rx="0.5" fill="#D9D9D9"/>
<rect x="36" y="63" width="6" height="1" rx="0.5" fill="#D9D9D9"/>
<rect x="45" y="63" width="6" height="1" rx="0.5" fill="#D9D9D9"/>
<path d="M123.672 65.5405L108.537 65.5405C107.533 65.6008 106.593 66.0547 105.922 66.8037C105.251 67.5526 104.903 68.5361 104.953 69.5405L104.953 93.3321C104.903 94.3365 105.251 95.3199 105.922 96.0689C106.593 96.8178 107.533 97.2717 108.537 97.332L123.672 97.332C124.676 97.2717 125.616 96.8178 126.287 96.0689C126.958 95.3199 127.306 94.3365 127.256 93.3321L127.256 69.5405C127.306 68.5361 126.958 67.5526 126.287 66.8037C125.616 66.0547 124.676 65.6008 123.672 65.5405V65.5405ZM125.656 93.3321C125.705 93.9121 125.525 94.4882 125.154 94.9368C124.783 95.3854 124.251 95.6709 123.672 95.7321L108.537 95.7321C107.958 95.6709 107.426 95.3854 107.055 94.9368C106.684 94.4882 106.504 93.9121 106.553 93.3321L106.553 69.5405C106.504 68.9604 106.684 68.3844 107.055 67.9357C107.426 67.4871 107.958 67.2016 108.537 67.1405L110.985 67.1405L110.985 67.9565C110.985 68.3808 111.153 68.7878 111.453 69.0878C111.753 69.3879 112.16 69.5565 112.585 69.5565L119.624 69.5565C120.049 69.5565 120.456 69.3879 120.756 69.0878C121.056 68.7878 121.224 68.3808 121.224 67.9565L121.224 67.1405L123.672 67.1405C124.251 67.2016 124.783 67.4871 125.154 67.9357C125.525 68.3844 125.705 68.9604 125.656 69.5405L125.656 93.3321Z" fill="white"/>
<path d="M116.845 81.1518L115.548 79.8027V79.4172H116.223C116.393 79.4172 116.54 79.3618 116.664 79.2509C116.788 79.1401 116.862 79.0028 116.888 78.839H115.356V78.4536H116.83C116.776 78.3411 116.694 78.2487 116.587 78.1764C116.479 78.1042 116.358 78.0681 116.223 78.0681H115.356V77.6826H117.669V78.0681H117.042C117.087 78.1227 117.127 78.1821 117.163 78.2464C117.198 78.3106 117.225 78.3797 117.245 78.4536H117.669V78.839H117.278C117.253 79.1121 117.14 79.3409 116.941 79.5255C116.742 79.7103 116.502 79.8027 116.223 79.8027H116.083L117.379 81.1518H116.845Z" fill="white"/>
<path d="M96.275 91.5595C96.275 96.3731 99.6054 100.874 104.081 101.967C108.556 100.874 111.886 96.3731 111.886 91.5595V86.3557L111.305 86.2264C109.11 85.7386 107.024 84.8485 105.153 83.6012L104.081 82.8865L103.917 83.0096C101.741 84.6414 99.2273 85.7652 96.5604 86.2986L96.275 86.3557V91.5595ZM104.081 100.233C100.828 99.3653 98.0096 95.4971 98.0096 91.7503V87.4832L104.081 84.7772V100.233Z" fill="#A2A2A2"/>
<line x1="85.2602" y1="68.1849" x2="96.0005" y2="68.1849" stroke="white" stroke-width="0.520384" stroke-linecap="round"/>
<line x1="91.0692" y1="69.637" x2="97.4469" y2="69.637" stroke="white" stroke-width="0.520384" stroke-linecap="round"/>
<line x1="86.3493" y1="71.0892" x2="95.2684" y2="71.0892" stroke="white" stroke-width="0.520384" stroke-linecap="round"/>
<path d="M96.2548 65.5405C96.511 66.6499 97.7412 69.0017 100.611 69.5342" stroke="white" stroke-width="0.867306" stroke-linecap="round"/>
<path d="M96.2548 73.5278C96.511 72.4185 97.7412 70.0667 100.611 69.5342" stroke="white" stroke-width="0.867306" stroke-linecap="round"/>
<path d="M124.029 62.0713C126.486 62.0713 131.488 63.6324 131.835 69.877" stroke="white" stroke-width="0.867306"/>
<path d="M124.029 59.4692C127.305 59.4692 133.974 61.5508 134.436 69.8769" stroke="white" stroke-width="1.15641"/>
<path d="M124.029 56C128.397 56 137.289 58.7754 137.906 69.8769" stroke="white" stroke-width="1.30096"/>
<path d="M121.07 74.2475C120.863 74.0404 120.863 73.7055 121.07 73.5007C121.277 73.2958 121.612 73.2936 121.817 73.5007L123.227 74.9105C123.326 75.0097 123.381 75.144 123.381 75.285C123.381 75.426 123.326 75.5604 123.227 75.6595L121.817 77.0694C121.61 77.2764 121.275 77.2764 121.07 77.0694C120.865 76.8623 120.863 76.5275 121.07 76.3226L121.577 75.8159L117.744 75.8115C117.451 75.8115 117.215 75.5758 117.215 75.2828C117.215 74.9898 117.451 74.7541 117.744 74.7541H121.579L121.07 74.2475ZM111.598 81.6492L111.091 82.1559H114.924C115.217 82.1559 115.453 82.3916 115.453 82.6845C115.453 82.9775 115.217 83.2132 114.924 83.2132H111.089L111.595 83.7199C111.802 83.927 111.802 84.2618 111.595 84.4667C111.388 84.6716 111.053 84.6738 110.849 84.4667L109.439 83.059C109.34 82.9599 109.285 82.8255 109.285 82.6845C109.285 82.5436 109.34 82.4092 109.439 82.3101L110.849 80.9002C111.056 80.6931 111.391 80.6931 111.595 80.9002C111.8 81.1073 111.802 81.4421 111.595 81.647L111.598 81.6492ZM111.399 74.7541H116.728C116.647 74.9127 116.598 75.0912 116.598 75.2828C116.598 75.915 117.111 76.4283 117.744 76.4283H120.33C120.242 76.8028 120.343 77.2103 120.634 77.5033C121.081 77.9505 121.806 77.9505 122.253 77.5033L122.678 77.0782V81.8034C122.678 82.581 122.046 83.2132 121.268 83.2132H115.939C116.021 83.0546 116.069 82.8762 116.069 82.6845C116.069 82.0523 115.556 81.539 114.924 81.539H112.338C112.426 81.1645 112.325 80.757 112.034 80.464C111.587 80.0168 110.862 80.0168 110.415 80.464L109.989 80.8892V76.164C109.989 75.3863 110.622 74.7541 111.399 74.7541ZM112.809 76.164H111.399V77.5738C112.177 77.5738 112.809 76.9416 112.809 76.164ZM121.268 80.3935C120.491 80.3935 119.858 81.0258 119.858 81.8034H121.268V80.3935ZM116.334 81.0985C117.501 81.0985 118.449 80.1512 118.449 78.9837C118.449 77.8161 117.501 76.8689 116.334 76.8689C115.166 76.8689 114.219 77.8161 114.219 78.9837C114.219 80.1512 115.166 81.0985 116.334 81.0985Z" fill="white"/>
<circle cx="16.5" cy="22.5" r="16.5" fill="black"/>
<path d="M24.9572 22.1163C25.1607 22.1163 25.3264 21.9513 25.3182 21.748C25.2505 20.0556 24.7171 18.4121 23.7735 16.9999C22.7616 15.4854 21.3233 14.305 19.6405 13.608C17.9578 12.911 16.1061 12.7286 14.3196 13.0839C12.5332 13.4393 10.8923 14.3164 9.60432 15.6043C8.31638 16.8923 7.43928 18.5332 7.08394 20.3196C6.72859 22.1061 6.91097 23.9578 7.608 25.6405C8.30503 27.3233 9.48541 28.7616 10.9999 29.7735C12.5143 30.7855 14.2949 31.3256 16.1163 31.3256V30.0084C14.5554 30.0084 13.0295 29.5455 11.7317 28.6783C10.4338 27.8111 9.42229 26.5785 8.82495 25.1365C8.22762 23.6944 8.07133 22.1075 8.37585 20.5766C8.68037 19.0457 9.43202 17.6395 10.5357 16.5357C11.6395 15.432 13.0457 14.6804 14.5766 14.3759C16.1075 14.0713 17.6944 14.2276 19.1365 14.825C20.5785 15.4223 21.8111 16.4338 22.6783 17.7317C23.4772 18.9273 23.9329 20.3163 23.9998 21.748C24.0093 21.9512 24.1733 22.1163 24.3767 22.1163H24.9572Z" fill="white"/>
<path d="M24.1658 21.9321H22.3787L24.6292 24.1165L26.6149 21.9321H25.1587" stroke="white" stroke-width="0.397151" stroke-linecap="round"/>
<path d="M18.7526 29.9583V29.4738L20.2514 27.9209C20.4115 27.7522 20.5434 27.6044 20.6472 27.4775C20.7525 27.3492 20.831 27.2274 20.883 27.112C20.9349 26.9967 20.9608 26.8741 20.9608 26.7443C20.9608 26.5973 20.9262 26.4704 20.857 26.3637C20.7878 26.2556 20.6934 26.1726 20.5737 26.115C20.454 26.0559 20.3192 26.0263 20.1692 26.0263C20.0106 26.0263 19.8722 26.0587 19.754 26.1236C19.6357 26.1885 19.5449 26.2801 19.4815 26.3983C19.418 26.5165 19.3863 26.6549 19.3863 26.8136H18.7483C18.7483 26.5439 18.8103 26.3082 18.9343 26.1063C19.0583 25.9045 19.2284 25.748 19.4447 25.637C19.661 25.5245 19.9068 25.4683 20.1822 25.4683C20.4605 25.4683 20.7056 25.5238 20.9176 25.6348C21.131 25.7444 21.2975 25.8944 21.4172 26.0847C21.5368 26.2736 21.5967 26.487 21.5967 26.7249C21.5967 26.8893 21.5657 27.05 21.5037 27.2072C21.4431 27.3643 21.3371 27.5395 21.1857 27.7327C21.0344 27.9245 20.8238 28.1574 20.5542 28.4313L19.674 29.3527V29.3851H21.668V29.9583H18.7526ZM22.2996 29.0931V28.5524L24.2137 25.5289H24.6397V26.3248H24.3694L23.0003 28.4919V28.5265H25.6238V29.0931H22.2996ZM24.3997 29.9583V28.9288L24.404 28.6822V25.5289H25.0377V29.9583H24.3997Z" fill="white"/>
<circle cx="16.1162" cy="21.7478" r="4.78884" fill="#8B8B8B"/>
<rect x="13.7219" y="19.9102" width="0.552558" height="2.21023" transform="rotate(-42.3745 13.7219 19.9102)" fill="black"/>
<rect width="0.552558" height="2.75663" transform="matrix(-0.530925 -0.847419 -0.847419 0.530925 19.2982 20.1902)" fill="black"/>
<circle cx="16.1163" cy="21.7479" r="1.10512" fill="white"/>
<rect x="15.5637" y="16.959" width="0.92093" height="0.736744" fill="black"/>
<rect x="15.5637" y="25.8" width="0.92093" height="0.736744" fill="black"/>
<rect x="11.3274" y="21.5637" width="0.92093" height="0.736744" fill="black"/>
<rect x="19.9843" y="21.5637" width="0.92093" height="0.736744" fill="black"/>
<circle cx="153.5" cy="109.5" r="20.5" fill="black"/>
<line x1="162.213" y1="97.6743" x2="149.674" y2="121.787" stroke="white" stroke-linecap="round"/>
<path d="M164.417 120.833H158.917C158.674 120.833 158.44 120.737 158.268 120.565C158.097 120.393 158 120.16 158 119.917V118.542H158.917V119.917H164.417V108.917H158.917V110.292H158V108.917C158 108.674 158.097 108.44 158.268 108.268C158.44 108.097 158.674 108 158.917 108H164.417C164.66 108 164.893 108.097 165.065 108.268C165.237 108.44 165.333 108.674 165.333 108.917V119.917C165.333 120.16 165.237 120.393 165.065 120.565C164.893 120.737 164.66 120.833 164.417 120.833Z" fill="white"/>
<path d="M157.854 116.52L159.495 114.875H153.458C153.205 114.875 153 114.67 153 114.417V114.417C153 114.164 153.205 113.958 153.458 113.958H159.495L157.854 112.313L158.5 111.667L161.25 114.417L158.5 117.167L157.854 116.52Z" fill="white"/>
<path d="M155.214 109H149.643C149.397 109 149.161 108.902 148.986 108.728C148.812 108.554 148.714 108.318 148.714 108.071V106.679H149.643V108.071H155.214V96.9286H149.643V98.3214H148.714V96.9286C148.714 96.6824 148.812 96.4463 148.986 96.2722C149.161 96.0982 149.397 96.0002 149.643 96H155.214C155.46 96.0002 155.696 96.0982 155.871 96.2722C156.045 96.4463 156.143 96.6824 156.143 96.9286V108.071C156.143 108.318 156.045 108.554 155.871 108.728C155.696 108.902 155.46 109 155.214 109Z" fill="white"/>
<path d="M146.442 104.915L144.777 103.25H151.357V102.321H144.777L146.442 100.656L145.786 100L143 102.786L145.786 105.571L146.442 104.915Z" fill="white"/>
<path d="M76 67.5L102.671 50.0747C107.327 47.0329 113.5 50.3734 113.5 55.9349V64" stroke="white" stroke-width="0.5" stroke-linecap="round" stroke-dasharray="1 1"/>
<path d="M75.5 67.5L42.2285 89.8214C39.5711 91.6042 36 89.6997 36 86.4997V76.5" stroke="white" stroke-width="0.5" stroke-linecap="round" stroke-dasharray="1 1"/>
<circle cx="72" cy="70" r="11" fill="black"/>
<path d="M77.36 74C77.44 73.34 77.5 72.68 77.5 72C77.5 71.32 77.44 70.66 77.36 70H80.74C80.9 70.64 81 71.31 81 72C81 72.69 80.9 73.36 80.74 74M75.59 79.56C76.19 78.45 76.65 77.25 76.97 76H79.92C78.9512 77.6683 77.4141 78.932 75.59 79.56M75.34 74H70.66C70.56 73.34 70.5 72.68 70.5 72C70.5 71.32 70.56 70.65 70.66 70H75.34C75.43 70.65 75.5 71.32 75.5 72C75.5 72.68 75.43 73.34 75.34 74ZM73 79.96C72.17 78.76 71.5 77.43 71.09 76H74.91C74.5 77.43 73.83 78.76 73 79.96ZM69 68H66.08C67.0389 66.3272 68.5748 65.0615 70.4 64.44C69.8 65.55 69.35 66.75 69 68ZM66.08 76H69C69.35 77.25 69.8 78.45 70.4 79.56C68.5786 78.9317 67.0448 77.6677 66.08 76M65.26 74C65.1 73.36 65 72.69 65 72C65 71.31 65.1 70.64 65.26 70H68.64C68.56 70.66 68.5 71.32 68.5 72C68.5 72.68 68.56 73.34 68.64 74M73 64.03C73.83 65.23 74.5 66.57 74.91 68H71.09C71.5 66.57 72.17 65.23 73 64.03M79.92 68H76.97C76.657 66.7615 76.1936 65.5659 75.59 64.44C77.43 65.07 78.96 66.34 79.92 68ZM73 62C67.47 62 63 66.5 63 72C63 74.6522 64.0536 77.1957 65.9289 79.0711C66.8575 79.9997 67.9599 80.7362 69.1732 81.2388C70.3864 81.7413 71.6868 82 73 82C75.6522 82 78.1957 80.9464 80.0711 79.0711C81.9464 77.1957 83 74.6522 83 72C83 70.6868 82.7413 69.3864 82.2388 68.1732C81.7362 66.9599 80.9997 65.8575 80.0711 64.9289C79.1425 64.0003 78.0401 63.2638 76.8268 62.7612C75.6136 62.2587 74.3132 62 73 62V62Z" fill="#818181"/>
</svg>
